dataset
version=1
nRows=33
nColumns=39
inDegrees=no
endheader
time	sternoclavicular_r2	sternoclavicular_r3	unrotscap_r3	unrotscap_r2	acromioclavicular_r2	acromioclavicular_r3	acromioclavicular_r1	unrothum_r1	unrothum_r3	unrothum_r2	elv_angle	shoulder_elv	shoulder1_r2	shoulder_rot	elbow_flexion	pro_sup	deviation	flexion	cmc_abduction	cmc_flexion	mp_flexion	ip_flexion	mcp2_flexion	mcp2_abduction	pm2_flexion	md2_flexion	mcp3_flexion	mcp3_abduction	pm3_flexion	md3_flexion	mcp4_flexion	mcp4_abduction	pm4_flexion	md4_flexion	mcp5_flexion	mcp5_abduction	pm5_flexion	md5_flexion
3.490000	-0.045513	-0.256162	0.067149	0.123165	0.081241	0.206933	0.046727	0.201628	0.089718	0.030016	0.074736	0.027437	0.146525	0.146525	2.410392	1.287408	0.000000	0.000000	0.000000	0.000000	0.000000	0.000000	0.000000	0.000000	0.000000	0.000000	0.000000	0.000000	0.000000	0.000000	0.000000	0.000000	0.000000	0.000000	0.000000	0.000000	0.000000	0.000000
3.495000	-0.045348	-0.256366	0.067326	0.122959	0.081106	0.206568	0.046284	0.200518	0.089685	0.030128	0.074650	0.027437	0.146525	0.146525	2.409715	1.287459	0.000000	0.000000	0.000000	0.000000	0.000000	0.000000	0.000000	0.000000	0.000000	0.000000	0.000000	0.000000	0.000000	0.000000	0.000000	0.000000	0.000000	0.000000	0.000000	0.000000	0.000000	0.000000
3.500000	-0.045180	-0.256573	0.067514	0.122741	0.080959	0.206194	0.045822	0.199355	0.089660	0.030243	0.074560	0.027437	0.146525	0.146525	2.408983	1.287512	0.000000	0.000000	0.000000	0.000000	0.000000	0.000000	0.000000	0.000000	0.000000	0.000000	0.000000	0.000000	0.000000	0.000000	0.000000	0.000000	0.000000	0.000000	0.000000	0.000000	0.000000	0.000000
3.505000	-0.045007	-0.256783	0.067712	0.122509	0.080800	0.205811	0.045341	0.198140	0.089645	0.030359	0.074467	0.027437	0.146525	0.146525	2.408192	1.287568	0.000000	0.000000	0.000000	0.000000	0.000000	0.000000	0.000000	0.000000	0.000000	0.000000	0.000000	0.000000	0.000000	0.000000	0.000000	0.000000	0.000000	0.000000	0.000000	0.000000	0.000000	0.000000
3.510000	-0.044830	-0.256996	0.067920	0.122263	0.080630	0.205418	0.044842	0.196873	0.089638	0.030478	0.074369	0.027437	0.146525	0.146525	2.407342	1.287626	0.000000	0.000000	0.000000	0.000000	0.000000	0.000000	0.000000	0.000000	0.000000	0.000000	0.000000	0.000000	0.000000	0.000000	0.000000	0.000000	0.000000	0.000000	0.000000	0.000000	0.000000	0.000000
3.515000	-0.044649	-0.257212	0.068138	0.122005	0.080448	0.205016	0.044323	0.195552	0.089639	0.030599	0.074268	0.027437	0.146525	0.146525	2.406429	1.287687	0.000000	0.000000	0.000000	0.000000	0.000000	0.000000	0.000000	0.000000	0.000000	0.000000	0.000000	0.000000	0.000000	0.000000	0.000000	0.000000	0.000000	0.000000	0.000000	0.000000	0.000000	0.000000
3.520000	-0.044464	-0.257430	0.068368	0.121733	0.080255	0.204604	0.043785	0.194179	0.089650	0.030723	0.074163	0.027437	0.146525	0.146525	2.405453	1.287751	0.000000	0.000000	0.000000	0.000000	0.000000	0.000000	0.000000	0.000000	0.000000	0.000000	0.000000	0.000000	0.000000	0.000000	0.000000	0.000000	0.000000	0.000000	0.000000	0.000000	0.000000	0.000000
3.525000	-0.044275	-0.257651	0.068608	0.121448	0.080049	0.204184	0.043227	0.192753	0.089669	0.030849	0.074055	0.027437	0.146525	0.146525	2.404412	1.287817	0.000000	0.000000	0.000000	0.000000	0.000000	0.000000	0.000000	0.000000	0.000000	0.000000	0.000000	0.000000	0.000000	0.000000	0.000000	0.000000	0.000000	0.000000	0.000000	0.000000	0.000000	0.000000
3.530000	-0.044081	-0.257875	0.068859	0.121150	0.079833	0.203753	0.042650	0.191275	0.089697	0.030977	0.073942	0.027437	0.146525	0.146525	2.403303	1.287886	0.000000	0.000000	0.000000	0.000000	0.000000	0.000000	0.000000	0.000000	0.000000	0.000000	0.000000	0.000000	0.000000	0.000000	0.000000	0.000000	0.000000	0.000000	0.000000	0.000000	0.000000	0.000000
3.535000	-0.043884	-0.258101	0.069121	0.120839	0.079605	0.203314	0.042053	0.189744	0.089734	0.031107	0.073826	0.027437	0.146525	0.146525	2.402125	1.287958	0.000000	0.000000	0.000000	0.000000	0.000000	0.000000	0.000000	0.000000	0.000000	0.000000	0.000000	0.000000	0.000000	0.000000	0.000000	0.000000	0.000000	0.000000	0.000000	0.000000	0.000000	0.000000
3.540000	-0.043684	-0.258328	0.069393	0.120515	0.079366	0.202865	0.041435	0.188161	0.089779	0.031241	0.073707	0.027437	0.146525	0.146525	2.400876	1.288033	0.000000	0.000000	0.000000	0.000000	0.000000	0.000000	0.000000	0.000000	0.000000	0.000000	0.000000	0.000000	0.000000	0.000000	0.000000	0.000000	0.000000	0.000000	0.000000	0.000000	0.000000	0.000000
3.545000	-0.043479	-0.258558	0.069677	0.120178	0.079116	0.202407	0.040798	0.186526	0.089834	0.031377	0.073585	0.027437	0.146525	0.146525	2.399555	1.288111	0.000000	0.000000	0.000000	0.000000	0.000000	0.000000	0.000000	0.000000	0.000000	0.000000	0.000000	0.000000	0.000000	0.000000	0.000000	0.000000	0.000000	0.000000	0.000000	0.000000	0.000000	0.000000
3.550000	-0.043271	-0.258790	0.069973	0.119829	0.078855	0.201940	0.040141	0.184839	0.089897	0.031516	0.073459	0.027437	0.146525	0.146525	2.398159	1.288192	0.000000	0.000000	0.000000	0.000000	0.000000	0.000000	0.000000	0.000000	0.000000	0.000000	0.000000	0.000000	0.000000	0.000000	0.000000	0.000000	0.000000	0.000000	0.000000	0.000000	0.000000	0.000000
3.555000	-0.043060	-0.259023	0.070279	0.119468	0.078583	0.201464	0.039465	0.183102	0.089969	0.031658	0.073331	0.027437	0.146525	0.146525	2.396687	1.288276	0.000000	0.000000	0.000000	0.000000	0.000000	0.000000	0.000000	0.000000	0.000000	0.000000	0.000000	0.000000	0.000000	0.000000	0.000000	0.000000	0.000000	0.000000	0.000000	0.000000	0.000000	0.000000
3.560000	-0.042845	-0.259257	0.070597	0.119094	0.078301	0.200980	0.038768	0.181314	0.090050	0.031803	0.073200	0.027437	0.146525	0.146525	2.395138	1.288363	0.000000	0.000000	0.000000	0.000000	0.000000	0.000000	0.000000	0.000000	0.000000	0.000000	0.000000	0.000000	0.000000	0.000000	0.000000	0.000000	0.000000	0.000000	0.000000	0.000000	0.000000	0.000000
3.565000	-0.042628	-0.259493	0.070925	0.118709	0.078009	0.200487	0.038052	0.179476	0.090140	0.031951	0.073066	0.027437	0.146525	0.146525	2.393509	1.288453	0.000000	0.000000	0.000000	0.000000	0.000000	0.000000	0.000000	0.000000	0.000000	0.000000	0.000000	0.000000	0.000000	0.000000	0.000000	0.000000	0.000000	0.000000	0.000000	0.000000	0.000000	0.000000
3.570000	-0.042407	-0.259730	0.071265	0.118313	0.077708	0.199986	0.037316	0.177589	0.090238	0.032103	0.072931	0.027437	0.146525	0.146525	2.391800	1.288547	0.000000	0.000000	0.000000	0.000000	0.000000	0.000000	0.000000	0.000000	0.000000	0.000000	0.000000	0.000000	0.000000	0.000000	0.000000	0.000000	0.000000	0.000000	0.000000	0.000000	0.000000	0.000000
3.575000	-0.042183	-0.259968	0.071616	0.117906	0.077396	0.199477	0.036561	0.175653	0.090346	0.032259	0.072794	0.027437	0.146525	0.146525	2.390008	1.288644	0.000000	0.000000	0.000000	0.000000	0.000000	0.000000	0.000000	0.000000	0.000000	0.000000	0.000000	0.000000	0.000000	0.000000	0.000000	0.000000	0.000000	0.000000	0.000000	0.000000	0.000000	0.000000
3.580000	-0.041957	-0.260207	0.071978	0.117488	0.077076	0.198959	0.035786	0.173670	0.090464	0.032418	0.072655	0.027437	0.146525	0.146525	2.388133	1.288744	0.000000	0.000000	0.000000	0.000000	0.000000	0.000000	0.000000	0.000000	0.000000	0.000000	0.000000	0.000000	0.000000	0.000000	0.000000	0.000000	0.000000	0.000000	0.000000	0.000000	0.000000	0.000000
3.585000	-0.041728	-0.260446	0.072351	0.117061	0.076747	0.198435	0.034993	0.171639	0.090590	0.032581	0.072516	0.027437	0.146525	0.146525	2.386172	1.288847	0.000000	0.000000	0.000000	0.000000	0.000000	0.000000	0.000000	0.000000	0.000000	0.000000	0.000000	0.000000	0.000000	0.000000	0.000000	0.000000	0.000000	0.000000	0.000000	0.000000	0.000000	0.000000
3.590000	-0.041497	-0.260686	0.072735	0.116623	0.076409	0.197903	0.034182	0.169563	0.090726	0.032749	0.072375	0.027437	0.146525	0.146525	2.384125	1.288954	0.000000	0.000000	0.000000	0.000000	0.000000	0.000000	0.000000	0.000000	0.000000	0.000000	0.000000	0.000000	0.000000	0.000000	0.000000	0.000000	0.000000	0.000000	0.000000	0.000000	0.000000	0.000000
3.595000	-0.041264	-0.260926	0.073130	0.116176	0.076064	0.197364	0.033352	0.167442	0.090871	0.032921	0.072234	0.027437	0.146525	0.146525	2.381990	1.289065	0.000000	0.000000	0.000000	0.000000	0.000000	0.000000	0.000000	0.000000	0.000000	0.000000	0.000000	0.000000	0.000000	0.000000	0.000000	0.000000	0.000000	0.000000	0.000000	0.000000	0.000000	0.000000
3.600000	-0.041028	-0.261166	0.073535	0.115721	0.075711	0.196818	0.032504	0.165277	0.091026	0.033098	0.072094	0.027437	0.146525	0.146525	2.379765	1.289179	0.000000	0.000000	0.000000	0.000000	0.000000	0.000000	0.000000	0.000000	0.000000	0.000000	0.000000	0.000000	0.000000	0.000000	0.000000	0.000000	0.000000	0.000000	0.000000	0.000000	0.000000	0.000000
3.605000	-0.040791	-0.261406	0.073951	0.115257	0.075351	0.196266	0.031639	0.163070	0.091190	0.033279	0.071954	0.027437	0.146525	0.146525	2.377451	1.289296	0.000000	0.000000	0.000000	0.000000	0.000000	0.000000	0.000000	0.000000	0.000000	0.000000	0.000000	0.000000	0.000000	0.000000	0.000000	0.000000	0.000000	0.000000	0.000000	0.000000	0.000000	0.000000
3.610000	-0.040552	-0.261645	0.074376	0.114785	0.074984	0.195708	0.030757	0.160821	0.091364	0.033466	0.071814	0.027437	0.146525	0.146525	2.375045	1.289417	0.000000	0.000000	0.000000	0.000000	0.000000	0.000000	0.000000	0.000000	0.000000	0.000000	0.000000	0.000000	0.000000	0.000000	0.000000	0.000000	0.000000	0.000000	0.000000	0.000000	0.000000	0.000000
3.615000	-0.040312	-0.261884	0.074812	0.114306	0.074612	0.195144	0.029858	0.158531	0.091548	0.033658	0.071676	0.027437	0.146525	0.146525	2.372546	1.289541	0.000000	0.000000	0.000000	0.000000	0.000000	0.000000	0.000000	0.000000	0.000000	0.000000	0.000000	0.000000	0.000000	0.000000	0.000000	0.000000	0.000000	0.000000	0.000000	0.000000	0.000000	0.000000
3.620000	-0.040071	-0.262122	0.075257	0.113821	0.074233	0.194575	0.028943	0.156202	0.091742	0.033856	0.071540	0.027437	0.146525	0.146525	2.369954	1.289669	0.000000	0.000000	0.000000	0.000000	0.000000	0.000000	0.000000	0.000000	0.000000	0.000000	0.000000	0.000000	0.000000	0.000000	0.000000	0.000000	0.000000	0.000000	0.000000	0.000000	0.000000	0.000000
3.625000	-0.039829	-0.262359	0.075712	0.113329	0.073850	0.194002	0.028013	0.153836	0.091947	0.034059	0.071407	0.027437	0.146525	0.146525	2.367268	1.289800	0.000000	0.000000	0.000000	0.000000	0.000000	0.000000	0.000000	0.000000	0.000000	0.000000	0.000000	0.000000	0.000000	0.000000	0.000000	0.000000	0.000000	0.000000	0.000000	0.000000	0.000000	0.000000
3.630000	-0.039585	-0.262595	0.076176	0.112833	0.073462	0.193423	0.027068	0.151432	0.092161	0.034269	0.071276	0.027437	0.146525	0.146525	2.364487	1.289935	0.000000	0.000000	0.000000	0.000000	0.000000	0.000000	0.000000	0.000000	0.000000	0.000000	0.000000	0.000000	0.000000	0.000000	0.000000	0.000000	0.000000	0.000000	0.000000	0.000000	0.000000	0.000000
3.635000	-0.039342	-0.262829	0.076649	0.112331	0.073070	0.192840	0.026108	0.148994	0.092386	0.034485	0.071148	0.027437	0.146525	0.146525	2.361609	1.290073	0.000000	0.000000	0.000000	0.000000	0.000000	0.000000	0.000000	0.000000	0.000000	0.000000	0.000000	0.000000	0.000000	0.000000	0.000000	0.000000	0.000000	0.000000	0.000000	0.000000	0.000000	0.000000
3.640000	-0.039097	-0.263062	0.077131	0.111825	0.072675	0.192254	0.025135	0.146522	0.092622	0.034708	0.071025	0.027437	0.146525	0.146525	2.358635	1.290215	0.000000	0.000000	0.000000	0.000000	0.000000	0.000000	0.000000	0.000000	0.000000	0.000000	0.000000	0.000000	0.000000	0.000000	0.000000	0.000000	0.000000	0.000000	0.000000	0.000000	0.000000	0.000000
3.645000	-0.038853	-0.263293	0.077620	0.111315	0.072277	0.191663	0.024149	0.144018	0.092868	0.034937	0.070905	0.027437	0.146525	0.146525	2.355564	1.290360	0.000000	0.000000	0.000000	0.000000	0.000000	0.000000	0.000000	0.000000	0.000000	0.000000	0.000000	0.000000	0.000000	0.000000	0.000000	0.000000	0.000000	0.000000	0.000000	0.000000	0.000000	0.000000
3.650000	-0.038609	-0.263521	0.078118	0.110803	0.071876	0.191070	0.023150	0.141483	0.093125	0.035173	0.070790	0.027437	0.146525	0.146525	2.352395	1.290509	0.000000	0.000000	0.000000	0.000000	0.000000	0.000000	0.000000	0.000000	0.000000	0.000000	0.000000	0.000000	0.000000	0.000000	0.000000	0.000000	0.000000	0.000000	0.000000	0.000000	0.000000	0.000000
